<mxfile host="app.diagrams.net" agent="Mozilla/5.0 (Windows NT 10.0; Win64; x64) AppleWebKit/537.36 (KHTML, like Gecko) Chrome/129.0.0.0 Safari/537.36" version="24.7.16">
  <diagram id="C5RBs43oDa-KdzZeNtuy" name="Page-1">
    <mxGraphModel dx="1863" dy="548" grid="1" gridSize="10" guides="1" tooltips="1" connect="1" arrows="1" fold="1" page="1" pageScale="1" pageWidth="827" pageHeight="1169" math="0" shadow="0">
      <root>
        <mxCell id="WIyWlLk6GJQsqaUBKTNV-0" />
        <mxCell id="WIyWlLk6GJQsqaUBKTNV-1" parent="WIyWlLk6GJQsqaUBKTNV-0" />
        <mxCell id="yU6eiCRh9YokpET91SIk-0" value="HomePageView" style="swimlane;fontStyle=1;childLayout=stackLayout;horizontal=1;startSize=26;horizontalStack=0;resizeParent=1;resizeParentMax=0;resizeLast=0;collapsible=1;marginBottom=0;labelBackgroundColor=none;fillColor=#F2CC8F;strokeColor=#E07A5F;fontColor=#393C56;" vertex="1" parent="WIyWlLk6GJQsqaUBKTNV-1">
          <mxGeometry x="-740" y="70" width="320" height="138" as="geometry" />
        </mxCell>
        <mxCell id="yU6eiCRh9YokpET91SIk-2" value="searchValue: String" style="text;strokeColor=none;fillColor=none;align=left;verticalAlign=top;spacingLeft=4;spacingRight=4;overflow=hidden;rotatable=0;points=[[0,0.5],[1,0.5]];portConstraint=eastwest;labelBackgroundColor=none;fontColor=#393C56;" vertex="1" parent="yU6eiCRh9YokpET91SIk-0">
          <mxGeometry y="26" width="320" height="26" as="geometry" />
        </mxCell>
        <mxCell id="yU6eiCRh9YokpET91SIk-4" value="summaryCards: List&lt;Card&gt;" style="text;strokeColor=none;fillColor=none;align=left;verticalAlign=top;spacingLeft=4;spacingRight=4;overflow=hidden;rotatable=0;points=[[0,0.5],[1,0.5]];portConstraint=eastwest;labelBackgroundColor=none;fontColor=#393C56;" vertex="1" parent="yU6eiCRh9YokpET91SIk-0">
          <mxGeometry y="52" width="320" height="26" as="geometry" />
        </mxCell>
        <mxCell id="yU6eiCRh9YokpET91SIk-7" value="" style="line;strokeWidth=1;fillColor=none;align=left;verticalAlign=middle;spacingTop=-1;spacingLeft=3;spacingRight=3;rotatable=0;labelPosition=right;points=[];portConstraint=eastwest;labelBackgroundColor=none;strokeColor=#E07A5F;fontColor=#393C56;" vertex="1" parent="yU6eiCRh9YokpET91SIk-0">
          <mxGeometry y="78" width="320" height="8" as="geometry" />
        </mxCell>
        <mxCell id="yU6eiCRh9YokpET91SIk-8" value="displayTrends(data: Data)" style="text;strokeColor=none;fillColor=none;align=left;verticalAlign=top;spacingLeft=4;spacingRight=4;overflow=hidden;rotatable=0;points=[[0,0.5],[1,0.5]];portConstraint=eastwest;labelBackgroundColor=none;fontColor=#393C56;" vertex="1" parent="yU6eiCRh9YokpET91SIk-0">
          <mxGeometry y="86" width="320" height="26" as="geometry" />
        </mxCell>
        <mxCell id="yU6eiCRh9YokpET91SIk-9" value="showMap()" style="text;strokeColor=none;fillColor=none;align=left;verticalAlign=top;spacingLeft=4;spacingRight=4;overflow=hidden;rotatable=0;points=[[0,0.5],[1,0.5]];portConstraint=eastwest;labelBackgroundColor=none;fontColor=#393C56;" vertex="1" parent="yU6eiCRh9YokpET91SIk-0">
          <mxGeometry y="112" width="320" height="26" as="geometry" />
        </mxCell>
        <mxCell id="yU6eiCRh9YokpET91SIk-11" value="HomePageController" style="swimlane;fontStyle=1;childLayout=stackLayout;horizontal=1;startSize=26;horizontalStack=0;resizeParent=1;resizeParentMax=0;resizeLast=0;collapsible=1;marginBottom=0;labelBackgroundColor=none;fillColor=#F2CC8F;strokeColor=#E07A5F;fontColor=#393C56;" vertex="1" parent="WIyWlLk6GJQsqaUBKTNV-1">
          <mxGeometry x="-740" y="310" width="310" height="52" as="geometry" />
        </mxCell>
        <mxCell id="yU6eiCRh9YokpET91SIk-12" value="model: HomePageModel" style="text;strokeColor=none;fillColor=none;align=left;verticalAlign=top;spacingLeft=4;spacingRight=4;overflow=hidden;rotatable=0;points=[[0,0.5],[1,0.5]];portConstraint=eastwest;labelBackgroundColor=none;fontColor=#393C56;" vertex="1" parent="yU6eiCRh9YokpET91SIk-11">
          <mxGeometry y="26" width="310" height="26" as="geometry" />
        </mxCell>
        <mxCell id="yU6eiCRh9YokpET91SIk-22" value="APIManager" style="swimlane;fontStyle=1;childLayout=stackLayout;horizontal=1;startSize=26;horizontalStack=0;resizeParent=1;resizeParentMax=0;resizeLast=0;collapsible=1;marginBottom=0;labelBackgroundColor=none;fillColor=#F2CC8F;strokeColor=#E07A5F;fontColor=#393C56;" vertex="1" parent="WIyWlLk6GJQsqaUBKTNV-1">
          <mxGeometry x="-250" y="473" width="270" height="104" as="geometry" />
        </mxCell>
        <mxCell id="yU6eiCRh9YokpET91SIk-23" value="avoindataHandler: AvoindataAPIHandler" style="text;strokeColor=none;fillColor=none;align=left;verticalAlign=top;spacingLeft=4;spacingRight=4;overflow=hidden;rotatable=0;points=[[0,0.5],[1,0.5]];portConstraint=eastwest;labelBackgroundColor=none;fontColor=#393C56;" vertex="1" parent="yU6eiCRh9YokpET91SIk-22">
          <mxGeometry y="26" width="270" height="26" as="geometry" />
        </mxCell>
        <mxCell id="yU6eiCRh9YokpET91SIk-24" value="fmiHandler: FMIAPIHandler" style="text;strokeColor=none;fillColor=none;align=left;verticalAlign=top;spacingLeft=4;spacingRight=4;overflow=hidden;rotatable=0;points=[[0,0.5],[1,0.5]];portConstraint=eastwest;labelBackgroundColor=none;fontColor=#393C56;" vertex="1" parent="yU6eiCRh9YokpET91SIk-22">
          <mxGeometry y="52" width="270" height="26" as="geometry" />
        </mxCell>
        <mxCell id="yU6eiCRh9YokpET91SIk-25" value="statisticsHandler: StatisticsFinlandAPIHandler" style="text;strokeColor=none;fillColor=none;align=left;verticalAlign=top;spacingLeft=4;spacingRight=4;overflow=hidden;rotatable=0;points=[[0,0.5],[1,0.5]];portConstraint=eastwest;labelBackgroundColor=none;fontColor=#393C56;" vertex="1" parent="yU6eiCRh9YokpET91SIk-22">
          <mxGeometry y="78" width="270" height="26" as="geometry" />
        </mxCell>
        <mxCell id="yU6eiCRh9YokpET91SIk-29" value="FMIAPIHandler" style="swimlane;fontStyle=1;childLayout=stackLayout;horizontal=1;startSize=26;horizontalStack=0;resizeParent=1;resizeParentMax=0;resizeLast=0;collapsible=1;marginBottom=0;labelBackgroundColor=none;fillColor=#F2CC8F;strokeColor=#E07A5F;fontColor=#393C56;" vertex="1" parent="WIyWlLk6GJQsqaUBKTNV-1">
          <mxGeometry x="-360" y="660" width="160" height="52" as="geometry" />
        </mxCell>
        <mxCell id="yU6eiCRh9YokpET91SIk-30" value="fetchData(): JSON" style="text;strokeColor=none;fillColor=none;align=left;verticalAlign=top;spacingLeft=4;spacingRight=4;overflow=hidden;rotatable=0;points=[[0,0.5],[1,0.5]];portConstraint=eastwest;labelBackgroundColor=none;fontColor=#393C56;" vertex="1" parent="yU6eiCRh9YokpET91SIk-29">
          <mxGeometry y="26" width="160" height="26" as="geometry" />
        </mxCell>
        <mxCell id="yU6eiCRh9YokpET91SIk-31" value="UserPreferences" style="swimlane;fontStyle=1;childLayout=stackLayout;horizontal=1;startSize=26;horizontalStack=0;resizeParent=1;resizeParentMax=0;resizeLast=0;collapsible=1;marginBottom=0;labelBackgroundColor=none;fillColor=#F2CC8F;strokeColor=#E07A5F;fontColor=#393C56;" vertex="1" parent="WIyWlLk6GJQsqaUBKTNV-1">
          <mxGeometry x="-740" y="610" width="310" height="78" as="geometry" />
        </mxCell>
        <mxCell id="yU6eiCRh9YokpET91SIk-32" value="preferredLocations: List&lt;String&gt;" style="text;strokeColor=none;fillColor=none;align=left;verticalAlign=top;spacingLeft=4;spacingRight=4;overflow=hidden;rotatable=0;points=[[0,0.5],[1,0.5]];portConstraint=eastwest;labelBackgroundColor=none;fontColor=#393C56;" vertex="1" parent="yU6eiCRh9YokpET91SIk-31">
          <mxGeometry y="26" width="310" height="26" as="geometry" />
        </mxCell>
        <mxCell id="yU6eiCRh9YokpET91SIk-33" value="defaultFilters: Filter" style="text;strokeColor=none;fillColor=none;align=left;verticalAlign=top;spacingLeft=4;spacingRight=4;overflow=hidden;rotatable=0;points=[[0,0.5],[1,0.5]];portConstraint=eastwest;labelBackgroundColor=none;fontColor=#393C56;" vertex="1" parent="yU6eiCRh9YokpET91SIk-31">
          <mxGeometry y="52" width="310" height="26" as="geometry" />
        </mxCell>
        <mxCell id="yU6eiCRh9YokpET91SIk-36" value="AvoindataAPIHandler" style="swimlane;fontStyle=1;childLayout=stackLayout;horizontal=1;startSize=26;horizontalStack=0;resizeParent=1;resizeParentMax=0;resizeLast=0;collapsible=1;marginBottom=0;labelBackgroundColor=none;fillColor=#F2CC8F;strokeColor=#E07A5F;fontColor=#393C56;" vertex="1" parent="WIyWlLk6GJQsqaUBKTNV-1">
          <mxGeometry x="-170" y="660" width="160" height="52" as="geometry" />
        </mxCell>
        <mxCell id="yU6eiCRh9YokpET91SIk-37" value="fetchData(): JSON" style="text;strokeColor=none;fillColor=none;align=left;verticalAlign=top;spacingLeft=4;spacingRight=4;overflow=hidden;rotatable=0;points=[[0,0.5],[1,0.5]];portConstraint=eastwest;labelBackgroundColor=none;fontColor=#393C56;" vertex="1" parent="yU6eiCRh9YokpET91SIk-36">
          <mxGeometry y="26" width="160" height="26" as="geometry" />
        </mxCell>
        <mxCell id="yU6eiCRh9YokpET91SIk-38" value="StatisticsFinlandAPIHandler" style="swimlane;fontStyle=1;childLayout=stackLayout;horizontal=1;startSize=26;horizontalStack=0;resizeParent=1;resizeParentMax=0;resizeLast=0;collapsible=1;marginBottom=0;labelBackgroundColor=none;fillColor=#F2CC8F;strokeColor=#E07A5F;fontColor=#393C56;" vertex="1" parent="WIyWlLk6GJQsqaUBKTNV-1">
          <mxGeometry x="20" y="660" width="200" height="52" as="geometry" />
        </mxCell>
        <mxCell id="yU6eiCRh9YokpET91SIk-39" value="fetchData(): JSON" style="text;strokeColor=none;fillColor=none;align=left;verticalAlign=top;spacingLeft=4;spacingRight=4;overflow=hidden;rotatable=0;points=[[0,0.5],[1,0.5]];portConstraint=eastwest;labelBackgroundColor=none;fontColor=#393C56;" vertex="1" parent="yU6eiCRh9YokpET91SIk-38">
          <mxGeometry y="26" width="200" height="26" as="geometry" />
        </mxCell>
        <mxCell id="yU6eiCRh9YokpET91SIk-43" value="HomePageModel" style="swimlane;fontStyle=1;childLayout=stackLayout;horizontal=1;startSize=26;horizontalStack=0;resizeParent=1;resizeParentMax=0;resizeLast=0;collapsible=1;marginBottom=0;labelBackgroundColor=none;fillColor=#F2CC8F;strokeColor=#E07A5F;fontColor=#393C56;" vertex="1" parent="WIyWlLk6GJQsqaUBKTNV-1">
          <mxGeometry x="-750" y="413" width="320" height="138" as="geometry" />
        </mxCell>
        <mxCell id="yU6eiCRh9YokpET91SIk-44" value="apiManager: APIManager" style="text;strokeColor=none;fillColor=none;align=left;verticalAlign=top;spacingLeft=4;spacingRight=4;overflow=hidden;rotatable=0;points=[[0,0.5],[1,0.5]];portConstraint=eastwest;labelBackgroundColor=none;fontColor=#393C56;" vertex="1" parent="yU6eiCRh9YokpET91SIk-43">
          <mxGeometry y="26" width="320" height="26" as="geometry" />
        </mxCell>
        <mxCell id="yU6eiCRh9YokpET91SIk-45" value="userPreferences: UserPreferences" style="text;strokeColor=none;fillColor=none;align=left;verticalAlign=top;spacingLeft=4;spacingRight=4;overflow=hidden;rotatable=0;points=[[0,0.5],[1,0.5]];portConstraint=eastwest;labelBackgroundColor=none;fontColor=#393C56;" vertex="1" parent="yU6eiCRh9YokpET91SIk-43">
          <mxGeometry y="52" width="320" height="26" as="geometry" />
        </mxCell>
        <mxCell id="yU6eiCRh9YokpET91SIk-49" value="" style="line;strokeWidth=1;fillColor=none;align=left;verticalAlign=middle;spacingTop=-1;spacingLeft=3;spacingRight=3;rotatable=0;labelPosition=right;points=[];portConstraint=eastwest;labelBackgroundColor=none;strokeColor=#E07A5F;fontColor=#393C56;" vertex="1" parent="yU6eiCRh9YokpET91SIk-43">
          <mxGeometry y="78" width="320" height="8" as="geometry" />
        </mxCell>
        <mxCell id="yU6eiCRh9YokpET91SIk-50" value="retrieveTourismTrends(location: String, dateRange: DateRange" style="text;strokeColor=none;fillColor=none;align=left;verticalAlign=top;spacingLeft=4;spacingRight=4;overflow=hidden;rotatable=0;points=[[0,0.5],[1,0.5]];portConstraint=eastwest;labelBackgroundColor=none;fontColor=#393C56;" vertex="1" parent="yU6eiCRh9YokpET91SIk-43">
          <mxGeometry y="86" width="320" height="26" as="geometry" />
        </mxCell>
        <mxCell id="yU6eiCRh9YokpET91SIk-51" value="processLocationData(location: String)" style="text;strokeColor=none;fillColor=none;align=left;verticalAlign=top;spacingLeft=4;spacingRight=4;overflow=hidden;rotatable=0;points=[[0,0.5],[1,0.5]];portConstraint=eastwest;labelBackgroundColor=none;fontColor=#393C56;" vertex="1" parent="yU6eiCRh9YokpET91SIk-43">
          <mxGeometry y="112" width="320" height="26" as="geometry" />
        </mxCell>
        <mxCell id="yU6eiCRh9YokpET91SIk-54" value="" style="endArrow=classic;startArrow=classic;html=1;rounded=0;exitX=0.45;exitY=-0.077;exitDx=0;exitDy=0;exitPerimeter=0;entryX=0.433;entryY=1;entryDx=0;entryDy=0;entryPerimeter=0;labelBackgroundColor=none;strokeColor=#E07A5F;fontColor=default;" edge="1" parent="WIyWlLk6GJQsqaUBKTNV-1" source="yU6eiCRh9YokpET91SIk-11" target="yU6eiCRh9YokpET91SIk-9">
          <mxGeometry width="50" height="50" relative="1" as="geometry">
            <mxPoint x="-650" y="360" as="sourcePoint" />
            <mxPoint x="-601.44" y="282.00800000000004" as="targetPoint" />
          </mxGeometry>
        </mxCell>
        <mxCell id="yU6eiCRh9YokpET91SIk-55" value="" style="endArrow=classic;startArrow=classic;html=1;rounded=0;entryX=0.457;entryY=0.969;entryDx=0;entryDy=0;entryPerimeter=0;labelBackgroundColor=none;strokeColor=#E07A5F;fontColor=default;" edge="1" parent="WIyWlLk6GJQsqaUBKTNV-1" target="yU6eiCRh9YokpET91SIk-12">
          <mxGeometry width="50" height="50" relative="1" as="geometry">
            <mxPoint x="-598" y="410" as="sourcePoint" />
            <mxPoint x="-600" y="422" as="targetPoint" />
          </mxGeometry>
        </mxCell>
        <mxCell id="yU6eiCRh9YokpET91SIk-56" value="" style="endArrow=classic;startArrow=classic;html=1;rounded=0;entryX=-0.007;entryY=0.792;entryDx=0;entryDy=0;entryPerimeter=0;labelBackgroundColor=none;strokeColor=#E07A5F;fontColor=default;" edge="1" parent="WIyWlLk6GJQsqaUBKTNV-1" target="yU6eiCRh9YokpET91SIk-23">
          <mxGeometry width="50" height="50" relative="1" as="geometry">
            <mxPoint x="-417" y="520" as="sourcePoint" />
            <mxPoint x="-320" y="520" as="targetPoint" />
          </mxGeometry>
        </mxCell>
        <mxCell id="yU6eiCRh9YokpET91SIk-58" value="" style="endArrow=none;html=1;rounded=0;labelBackgroundColor=none;strokeColor=#E07A5F;fontColor=default;" edge="1" parent="WIyWlLk6GJQsqaUBKTNV-1">
          <mxGeometry width="50" height="50" relative="1" as="geometry">
            <mxPoint x="-310" y="630" as="sourcePoint" />
            <mxPoint x="120" y="630" as="targetPoint" />
          </mxGeometry>
        </mxCell>
        <mxCell id="yU6eiCRh9YokpET91SIk-59" value="" style="endArrow=none;html=1;rounded=0;entryX=0.482;entryY=1.192;entryDx=0;entryDy=0;entryPerimeter=0;labelBackgroundColor=none;strokeColor=#E07A5F;fontColor=default;" edge="1" parent="WIyWlLk6GJQsqaUBKTNV-1" target="yU6eiCRh9YokpET91SIk-25">
          <mxGeometry width="50" height="50" relative="1" as="geometry">
            <mxPoint x="-120" y="630" as="sourcePoint" />
            <mxPoint x="-140" y="560" as="targetPoint" />
          </mxGeometry>
        </mxCell>
        <mxCell id="yU6eiCRh9YokpET91SIk-60" value="" style="endArrow=classic;html=1;rounded=0;entryX=0.313;entryY=0;entryDx=0;entryDy=0;entryPerimeter=0;labelBackgroundColor=none;strokeColor=#E07A5F;fontColor=default;" edge="1" parent="WIyWlLk6GJQsqaUBKTNV-1" target="yU6eiCRh9YokpET91SIk-29">
          <mxGeometry width="50" height="50" relative="1" as="geometry">
            <mxPoint x="-310" y="630" as="sourcePoint" />
            <mxPoint x="-140" y="560" as="targetPoint" />
          </mxGeometry>
        </mxCell>
        <mxCell id="yU6eiCRh9YokpET91SIk-61" value="" style="endArrow=classic;html=1;rounded=0;entryX=0.313;entryY=0;entryDx=0;entryDy=0;entryPerimeter=0;labelBackgroundColor=none;strokeColor=#E07A5F;fontColor=default;" edge="1" parent="WIyWlLk6GJQsqaUBKTNV-1">
          <mxGeometry width="50" height="50" relative="1" as="geometry">
            <mxPoint x="-100" y="630" as="sourcePoint" />
            <mxPoint x="-100" y="660" as="targetPoint" />
          </mxGeometry>
        </mxCell>
        <mxCell id="yU6eiCRh9YokpET91SIk-62" value="" style="endArrow=classic;html=1;rounded=0;entryX=0.313;entryY=0;entryDx=0;entryDy=0;entryPerimeter=0;labelBackgroundColor=none;strokeColor=#E07A5F;fontColor=default;" edge="1" parent="WIyWlLk6GJQsqaUBKTNV-1">
          <mxGeometry width="50" height="50" relative="1" as="geometry">
            <mxPoint x="119.5" y="630" as="sourcePoint" />
            <mxPoint x="119.5" y="660" as="targetPoint" />
          </mxGeometry>
        </mxCell>
        <mxCell id="yU6eiCRh9YokpET91SIk-63" value="" style="endArrow=classic;startArrow=classic;html=1;rounded=0;labelBackgroundColor=none;strokeColor=#E07A5F;fontColor=default;" edge="1" parent="WIyWlLk6GJQsqaUBKTNV-1">
          <mxGeometry width="50" height="50" relative="1" as="geometry">
            <mxPoint x="-600" y="610" as="sourcePoint" />
            <mxPoint x="-600" y="550" as="targetPoint" />
          </mxGeometry>
        </mxCell>
        <mxCell id="yU6eiCRh9YokpET91SIk-64" value="WeatherDataView" style="swimlane;fontStyle=1;childLayout=stackLayout;horizontal=1;startSize=26;horizontalStack=0;resizeParent=1;resizeParentMax=0;resizeLast=0;collapsible=1;marginBottom=0;labelBackgroundColor=none;fillColor=#F2CC8F;strokeColor=#E07A5F;fontColor=#393C56;" vertex="1" parent="WIyWlLk6GJQsqaUBKTNV-1">
          <mxGeometry x="-290" y="270" width="320" height="112" as="geometry" />
        </mxCell>
        <mxCell id="yU6eiCRh9YokpET91SIk-65" value="Time : DateTime" style="text;strokeColor=none;fillColor=none;align=left;verticalAlign=top;spacingLeft=4;spacingRight=4;overflow=hidden;rotatable=0;points=[[0,0.5],[1,0.5]];portConstraint=eastwest;labelBackgroundColor=none;fontColor=#393C56;" vertex="1" parent="yU6eiCRh9YokpET91SIk-64">
          <mxGeometry y="26" width="320" height="26" as="geometry" />
        </mxCell>
        <mxCell id="yU6eiCRh9YokpET91SIk-66" value="Location: String" style="text;strokeColor=none;fillColor=none;align=left;verticalAlign=top;spacingLeft=4;spacingRight=4;overflow=hidden;rotatable=0;points=[[0,0.5],[1,0.5]];portConstraint=eastwest;labelBackgroundColor=none;fontColor=#393C56;" vertex="1" parent="yU6eiCRh9YokpET91SIk-64">
          <mxGeometry y="52" width="320" height="26" as="geometry" />
        </mxCell>
        <mxCell id="yU6eiCRh9YokpET91SIk-69" value="" style="line;strokeWidth=1;fillColor=none;align=left;verticalAlign=middle;spacingTop=-1;spacingLeft=3;spacingRight=3;rotatable=0;labelPosition=right;points=[];portConstraint=eastwest;labelBackgroundColor=none;strokeColor=#E07A5F;fontColor=#393C56;" vertex="1" parent="yU6eiCRh9YokpET91SIk-64">
          <mxGeometry y="78" width="320" height="8" as="geometry" />
        </mxCell>
        <mxCell id="yU6eiCRh9YokpET91SIk-70" value="displayWeather(data: Data)" style="text;strokeColor=none;fillColor=none;align=left;verticalAlign=top;spacingLeft=4;spacingRight=4;overflow=hidden;rotatable=0;points=[[0,0.5],[1,0.5]];portConstraint=eastwest;labelBackgroundColor=none;fontColor=#393C56;" vertex="1" parent="yU6eiCRh9YokpET91SIk-64">
          <mxGeometry y="86" width="320" height="26" as="geometry" />
        </mxCell>
        <mxCell id="yU6eiCRh9YokpET91SIk-73" value="WeatherDataController" style="swimlane;fontStyle=1;childLayout=stackLayout;horizontal=1;startSize=26;horizontalStack=0;resizeParent=1;resizeParentMax=0;resizeLast=0;collapsible=1;marginBottom=0;labelBackgroundColor=none;fillColor=#F2CC8F;strokeColor=#E07A5F;fontColor=#393C56;" vertex="1" parent="WIyWlLk6GJQsqaUBKTNV-1">
          <mxGeometry x="130" y="310" width="310" height="52" as="geometry" />
        </mxCell>
        <mxCell id="yU6eiCRh9YokpET91SIk-74" value="model: WeatherDataModel" style="text;strokeColor=none;fillColor=none;align=left;verticalAlign=top;spacingLeft=4;spacingRight=4;overflow=hidden;rotatable=0;points=[[0,0.5],[1,0.5]];portConstraint=eastwest;labelBackgroundColor=none;fontColor=#393C56;" vertex="1" parent="yU6eiCRh9YokpET91SIk-73">
          <mxGeometry y="26" width="310" height="26" as="geometry" />
        </mxCell>
        <mxCell id="yU6eiCRh9YokpET91SIk-75" value="WeatherDataModel" style="swimlane;fontStyle=1;childLayout=stackLayout;horizontal=1;startSize=26;horizontalStack=0;resizeParent=1;resizeParentMax=0;resizeLast=0;collapsible=1;marginBottom=0;labelBackgroundColor=none;fillColor=#F2CC8F;strokeColor=#E07A5F;fontColor=#393C56;" vertex="1" parent="WIyWlLk6GJQsqaUBKTNV-1">
          <mxGeometry x="140" y="460" width="320" height="112" as="geometry" />
        </mxCell>
        <mxCell id="yU6eiCRh9YokpET91SIk-76" value="apiManager: APIManager" style="text;strokeColor=none;fillColor=none;align=left;verticalAlign=top;spacingLeft=4;spacingRight=4;overflow=hidden;rotatable=0;points=[[0,0.5],[1,0.5]];portConstraint=eastwest;labelBackgroundColor=none;fontColor=#393C56;" vertex="1" parent="yU6eiCRh9YokpET91SIk-75">
          <mxGeometry y="26" width="320" height="26" as="geometry" />
        </mxCell>
        <mxCell id="yU6eiCRh9YokpET91SIk-78" value="" style="line;strokeWidth=1;fillColor=none;align=left;verticalAlign=middle;spacingTop=-1;spacingLeft=3;spacingRight=3;rotatable=0;labelPosition=right;points=[];portConstraint=eastwest;labelBackgroundColor=none;strokeColor=#E07A5F;fontColor=#393C56;" vertex="1" parent="yU6eiCRh9YokpET91SIk-75">
          <mxGeometry y="52" width="320" height="8" as="geometry" />
        </mxCell>
        <mxCell id="yU6eiCRh9YokpET91SIk-79" value="retrieveTourismData(location: String, dateRange: DateRange" style="text;strokeColor=none;fillColor=none;align=left;verticalAlign=top;spacingLeft=4;spacingRight=4;overflow=hidden;rotatable=0;points=[[0,0.5],[1,0.5]];portConstraint=eastwest;labelBackgroundColor=none;fontColor=#393C56;" vertex="1" parent="yU6eiCRh9YokpET91SIk-75">
          <mxGeometry y="60" width="320" height="26" as="geometry" />
        </mxCell>
        <mxCell id="yU6eiCRh9YokpET91SIk-80" value="processWeatherData(location: String)" style="text;strokeColor=none;fillColor=none;align=left;verticalAlign=top;spacingLeft=4;spacingRight=4;overflow=hidden;rotatable=0;points=[[0,0.5],[1,0.5]];portConstraint=eastwest;labelBackgroundColor=none;fontColor=#393C56;" vertex="1" parent="yU6eiCRh9YokpET91SIk-75">
          <mxGeometry y="86" width="320" height="26" as="geometry" />
        </mxCell>
        <mxCell id="yU6eiCRh9YokpET91SIk-82" value="" style="endArrow=classic;startArrow=classic;html=1;rounded=0;exitX=-0.008;exitY=-0.038;exitDx=0;exitDy=0;exitPerimeter=0;entryX=1;entryY=0.5;entryDx=0;entryDy=0;labelBackgroundColor=none;strokeColor=#E07A5F;fontColor=default;" edge="1" parent="WIyWlLk6GJQsqaUBKTNV-1" source="yU6eiCRh9YokpET91SIk-74" target="yU6eiCRh9YokpET91SIk-66">
          <mxGeometry width="50" height="50" relative="1" as="geometry">
            <mxPoint x="160" y="340" as="sourcePoint" />
            <mxPoint x="-151.44000000000005" y="204.00800000000004" as="targetPoint" />
          </mxGeometry>
        </mxCell>
        <mxCell id="yU6eiCRh9YokpET91SIk-83" value="" style="endArrow=classic;startArrow=classic;html=1;rounded=0;exitX=0.386;exitY=0;exitDx=0;exitDy=0;exitPerimeter=0;entryX=0.431;entryY=1.162;entryDx=0;entryDy=0;entryPerimeter=0;labelBackgroundColor=none;strokeColor=#E07A5F;fontColor=default;" edge="1" parent="WIyWlLk6GJQsqaUBKTNV-1" source="yU6eiCRh9YokpET91SIk-75" target="yU6eiCRh9YokpET91SIk-74">
          <mxGeometry width="50" height="50" relative="1" as="geometry">
            <mxPoint x="280" y="458" as="sourcePoint" />
            <mxPoint x="280" y="402" as="targetPoint" />
          </mxGeometry>
        </mxCell>
        <mxCell id="yU6eiCRh9YokpET91SIk-84" value="" style="endArrow=classic;startArrow=classic;html=1;rounded=0;exitX=1;exitY=0.5;exitDx=0;exitDy=0;labelBackgroundColor=none;strokeColor=#E07A5F;fontColor=default;" edge="1" parent="WIyWlLk6GJQsqaUBKTNV-1" source="yU6eiCRh9YokpET91SIk-23">
          <mxGeometry width="50" height="50" relative="1" as="geometry">
            <mxPoint x="30" y="510" as="sourcePoint" />
            <mxPoint x="140" y="510" as="targetPoint" />
          </mxGeometry>
        </mxCell>
        <mxCell id="yU6eiCRh9YokpET91SIk-86" value="TourismDataView" style="swimlane;fontStyle=1;childLayout=stackLayout;horizontal=1;startSize=26;horizontalStack=0;resizeParent=1;resizeParentMax=0;resizeLast=0;collapsible=1;marginBottom=0;labelBackgroundColor=none;fillColor=#F2CC8F;strokeColor=#E07A5F;fontColor=#393C56;" vertex="1" parent="WIyWlLk6GJQsqaUBKTNV-1">
          <mxGeometry x="-745" y="740" width="320" height="138" as="geometry" />
        </mxCell>
        <mxCell id="yU6eiCRh9YokpET91SIk-87" value="location : String" style="text;strokeColor=none;fillColor=none;align=left;verticalAlign=top;spacingLeft=4;spacingRight=4;overflow=hidden;rotatable=0;points=[[0,0.5],[1,0.5]];portConstraint=eastwest;labelBackgroundColor=none;fontColor=#393C56;" vertex="1" parent="yU6eiCRh9YokpET91SIk-86">
          <mxGeometry y="26" width="320" height="26" as="geometry" />
        </mxCell>
        <mxCell id="yU6eiCRh9YokpET91SIk-88" value="timeRange : DateTime" style="text;strokeColor=none;fillColor=none;align=left;verticalAlign=top;spacingLeft=4;spacingRight=4;overflow=hidden;rotatable=0;points=[[0,0.5],[1,0.5]];portConstraint=eastwest;labelBackgroundColor=none;fontColor=#393C56;" vertex="1" parent="yU6eiCRh9YokpET91SIk-86">
          <mxGeometry y="52" width="320" height="26" as="geometry" />
        </mxCell>
        <mxCell id="yU6eiCRh9YokpET91SIk-90" value="visitorCount: number" style="text;strokeColor=none;fillColor=none;align=left;verticalAlign=top;spacingLeft=4;spacingRight=4;overflow=hidden;rotatable=0;points=[[0,0.5],[1,0.5]];portConstraint=eastwest;labelBackgroundColor=none;fontColor=#393C56;" vertex="1" parent="yU6eiCRh9YokpET91SIk-86">
          <mxGeometry y="78" width="320" height="26" as="geometry" />
        </mxCell>
        <mxCell id="yU6eiCRh9YokpET91SIk-91" value="" style="line;strokeWidth=1;fillColor=none;align=left;verticalAlign=middle;spacingTop=-1;spacingLeft=3;spacingRight=3;rotatable=0;labelPosition=right;points=[];portConstraint=eastwest;labelBackgroundColor=none;strokeColor=#E07A5F;fontColor=#393C56;" vertex="1" parent="yU6eiCRh9YokpET91SIk-86">
          <mxGeometry y="104" width="320" height="8" as="geometry" />
        </mxCell>
        <mxCell id="yU6eiCRh9YokpET91SIk-92" value="displayVisitorCount(data: Data)" style="text;strokeColor=none;fillColor=none;align=left;verticalAlign=top;spacingLeft=4;spacingRight=4;overflow=hidden;rotatable=0;points=[[0,0.5],[1,0.5]];portConstraint=eastwest;labelBackgroundColor=none;fontColor=#393C56;" vertex="1" parent="yU6eiCRh9YokpET91SIk-86">
          <mxGeometry y="112" width="320" height="26" as="geometry" />
        </mxCell>
        <mxCell id="yU6eiCRh9YokpET91SIk-95" value="TourismDataController" style="swimlane;fontStyle=1;childLayout=stackLayout;horizontal=1;startSize=26;horizontalStack=0;resizeParent=1;resizeParentMax=0;resizeLast=0;collapsible=1;marginBottom=0;labelBackgroundColor=none;fillColor=#F2CC8F;strokeColor=#E07A5F;fontColor=#393C56;" vertex="1" parent="WIyWlLk6GJQsqaUBKTNV-1">
          <mxGeometry x="-740" y="950" width="310" height="52" as="geometry" />
        </mxCell>
        <mxCell id="yU6eiCRh9YokpET91SIk-96" value="model: TourismDataModel" style="text;strokeColor=none;fillColor=none;align=left;verticalAlign=top;spacingLeft=4;spacingRight=4;overflow=hidden;rotatable=0;points=[[0,0.5],[1,0.5]];portConstraint=eastwest;labelBackgroundColor=none;fontColor=#393C56;" vertex="1" parent="yU6eiCRh9YokpET91SIk-95">
          <mxGeometry y="26" width="310" height="26" as="geometry" />
        </mxCell>
        <mxCell id="yU6eiCRh9YokpET91SIk-97" value="TourismDataModel" style="swimlane;fontStyle=1;childLayout=stackLayout;horizontal=1;startSize=26;horizontalStack=0;resizeParent=1;resizeParentMax=0;resizeLast=0;collapsible=1;marginBottom=0;labelBackgroundColor=none;fillColor=#F2CC8F;strokeColor=#E07A5F;fontColor=#393C56;" vertex="1" parent="WIyWlLk6GJQsqaUBKTNV-1">
          <mxGeometry x="-340" y="920" width="320" height="86" as="geometry" />
        </mxCell>
        <mxCell id="yU6eiCRh9YokpET91SIk-98" value="apiManager: APIManager" style="text;strokeColor=none;fillColor=none;align=left;verticalAlign=top;spacingLeft=4;spacingRight=4;overflow=hidden;rotatable=0;points=[[0,0.5],[1,0.5]];portConstraint=eastwest;labelBackgroundColor=none;fontColor=#393C56;" vertex="1" parent="yU6eiCRh9YokpET91SIk-97">
          <mxGeometry y="26" width="320" height="26" as="geometry" />
        </mxCell>
        <mxCell id="yU6eiCRh9YokpET91SIk-100" value="" style="line;strokeWidth=1;fillColor=none;align=left;verticalAlign=middle;spacingTop=-1;spacingLeft=3;spacingRight=3;rotatable=0;labelPosition=right;points=[];portConstraint=eastwest;labelBackgroundColor=none;strokeColor=#E07A5F;fontColor=#393C56;" vertex="1" parent="yU6eiCRh9YokpET91SIk-97">
          <mxGeometry y="52" width="320" height="8" as="geometry" />
        </mxCell>
        <mxCell id="yU6eiCRh9YokpET91SIk-101" value="retrieveTourismData(location: String, dateRange: DateRange" style="text;strokeColor=none;fillColor=none;align=left;verticalAlign=top;spacingLeft=4;spacingRight=4;overflow=hidden;rotatable=0;points=[[0,0.5],[1,0.5]];portConstraint=eastwest;labelBackgroundColor=none;fontColor=#393C56;" vertex="1" parent="yU6eiCRh9YokpET91SIk-97">
          <mxGeometry y="60" width="320" height="26" as="geometry" />
        </mxCell>
        <mxCell id="yU6eiCRh9YokpET91SIk-104" value="" style="endArrow=classic;startArrow=classic;html=1;rounded=0;exitX=0.45;exitY=-0.077;exitDx=0;exitDy=0;exitPerimeter=0;entryX=0.449;entryY=1.062;entryDx=0;entryDy=0;entryPerimeter=0;labelBackgroundColor=none;strokeColor=#E07A5F;fontColor=default;" edge="1" parent="WIyWlLk6GJQsqaUBKTNV-1" source="yU6eiCRh9YokpET91SIk-95" target="yU6eiCRh9YokpET91SIk-92">
          <mxGeometry width="50" height="50" relative="1" as="geometry">
            <mxPoint x="-290" y="1100" as="sourcePoint" />
            <mxPoint x="-606.44" y="952.008" as="targetPoint" />
          </mxGeometry>
        </mxCell>
        <mxCell id="yU6eiCRh9YokpET91SIk-105" value="" style="endArrow=classic;startArrow=classic;html=1;rounded=0;exitX=1;exitY=0.5;exitDx=0;exitDy=0;labelBackgroundColor=none;strokeColor=#E07A5F;fontColor=default;" edge="1" parent="WIyWlLk6GJQsqaUBKTNV-1" source="yU6eiCRh9YokpET91SIk-96">
          <mxGeometry width="50" height="50" relative="1" as="geometry">
            <mxPoint x="-170" y="1218" as="sourcePoint" />
            <mxPoint x="-340" y="989" as="targetPoint" />
          </mxGeometry>
        </mxCell>
        <mxCell id="yU6eiCRh9YokpET91SIk-107" value="MapView" style="swimlane;fontStyle=1;childLayout=stackLayout;horizontal=1;startSize=26;horizontalStack=0;resizeParent=1;resizeParentMax=0;resizeLast=0;collapsible=1;marginBottom=0;labelBackgroundColor=none;fillColor=#F2CC8F;strokeColor=#E07A5F;fontColor=#393C56;" vertex="1" parent="WIyWlLk6GJQsqaUBKTNV-1">
          <mxGeometry x="40" y="800" width="320" height="86" as="geometry" />
        </mxCell>
        <mxCell id="yU6eiCRh9YokpET91SIk-108" value="category: String" style="text;strokeColor=none;fillColor=none;align=left;verticalAlign=top;spacingLeft=4;spacingRight=4;overflow=hidden;rotatable=0;points=[[0,0.5],[1,0.5]];portConstraint=eastwest;labelBackgroundColor=none;fontColor=#393C56;" vertex="1" parent="yU6eiCRh9YokpET91SIk-107">
          <mxGeometry y="26" width="320" height="26" as="geometry" />
        </mxCell>
        <mxCell id="yU6eiCRh9YokpET91SIk-111" value="" style="line;strokeWidth=1;fillColor=none;align=left;verticalAlign=middle;spacingTop=-1;spacingLeft=3;spacingRight=3;rotatable=0;labelPosition=right;points=[];portConstraint=eastwest;labelBackgroundColor=none;strokeColor=#E07A5F;fontColor=#393C56;" vertex="1" parent="yU6eiCRh9YokpET91SIk-107">
          <mxGeometry y="52" width="320" height="8" as="geometry" />
        </mxCell>
        <mxCell id="yU6eiCRh9YokpET91SIk-112" value="displayMap(data: Data)" style="text;strokeColor=none;fillColor=none;align=left;verticalAlign=top;spacingLeft=4;spacingRight=4;overflow=hidden;rotatable=0;points=[[0,0.5],[1,0.5]];portConstraint=eastwest;labelBackgroundColor=none;fontColor=#393C56;" vertex="1" parent="yU6eiCRh9YokpET91SIk-107">
          <mxGeometry y="60" width="320" height="26" as="geometry" />
        </mxCell>
        <mxCell id="yU6eiCRh9YokpET91SIk-113" value="MapController" style="swimlane;fontStyle=1;childLayout=stackLayout;horizontal=1;startSize=26;horizontalStack=0;resizeParent=1;resizeParentMax=0;resizeLast=0;collapsible=1;marginBottom=0;labelBackgroundColor=none;fillColor=#F2CC8F;strokeColor=#E07A5F;fontColor=#393C56;" vertex="1" parent="WIyWlLk6GJQsqaUBKTNV-1">
          <mxGeometry x="45" y="954" width="310" height="52" as="geometry" />
        </mxCell>
        <mxCell id="yU6eiCRh9YokpET91SIk-114" value="model: MapDataModel" style="text;strokeColor=none;fillColor=none;align=left;verticalAlign=top;spacingLeft=4;spacingRight=4;overflow=hidden;rotatable=0;points=[[0,0.5],[1,0.5]];portConstraint=eastwest;labelBackgroundColor=none;fontColor=#393C56;" vertex="1" parent="yU6eiCRh9YokpET91SIk-113">
          <mxGeometry y="26" width="310" height="26" as="geometry" />
        </mxCell>
        <mxCell id="yU6eiCRh9YokpET91SIk-115" value="MapDataModel" style="swimlane;fontStyle=1;childLayout=stackLayout;horizontal=1;startSize=26;horizontalStack=0;resizeParent=1;resizeParentMax=0;resizeLast=0;collapsible=1;marginBottom=0;labelBackgroundColor=none;fillColor=#F2CC8F;strokeColor=#E07A5F;fontColor=#393C56;" vertex="1" parent="WIyWlLk6GJQsqaUBKTNV-1">
          <mxGeometry x="45" y="1070" width="320" height="86" as="geometry" />
        </mxCell>
        <mxCell id="yU6eiCRh9YokpET91SIk-116" value="apiManager: APIManager" style="text;strokeColor=none;fillColor=none;align=left;verticalAlign=top;spacingLeft=4;spacingRight=4;overflow=hidden;rotatable=0;points=[[0,0.5],[1,0.5]];portConstraint=eastwest;labelBackgroundColor=none;fontColor=#393C56;" vertex="1" parent="yU6eiCRh9YokpET91SIk-115">
          <mxGeometry y="26" width="320" height="26" as="geometry" />
        </mxCell>
        <mxCell id="yU6eiCRh9YokpET91SIk-117" value="" style="line;strokeWidth=1;fillColor=none;align=left;verticalAlign=middle;spacingTop=-1;spacingLeft=3;spacingRight=3;rotatable=0;labelPosition=right;points=[];portConstraint=eastwest;labelBackgroundColor=none;strokeColor=#E07A5F;fontColor=#393C56;" vertex="1" parent="yU6eiCRh9YokpET91SIk-115">
          <mxGeometry y="52" width="320" height="8" as="geometry" />
        </mxCell>
        <mxCell id="yU6eiCRh9YokpET91SIk-118" value="retrieveLocationData(location: String)" style="text;strokeColor=none;fillColor=none;align=left;verticalAlign=top;spacingLeft=4;spacingRight=4;overflow=hidden;rotatable=0;points=[[0,0.5],[1,0.5]];portConstraint=eastwest;labelBackgroundColor=none;fontColor=#393C56;" vertex="1" parent="yU6eiCRh9YokpET91SIk-115">
          <mxGeometry y="60" width="320" height="26" as="geometry" />
        </mxCell>
        <mxCell id="yU6eiCRh9YokpET91SIk-119" value="" style="endArrow=classic;startArrow=classic;html=1;rounded=0;exitX=0.45;exitY=-0.077;exitDx=0;exitDy=0;exitPerimeter=0;entryX=0.449;entryY=1.062;entryDx=0;entryDy=0;entryPerimeter=0;labelBackgroundColor=none;strokeColor=#E07A5F;fontColor=default;" edge="1" parent="WIyWlLk6GJQsqaUBKTNV-1" source="yU6eiCRh9YokpET91SIk-113" target="yU6eiCRh9YokpET91SIk-112">
          <mxGeometry width="50" height="50" relative="1" as="geometry">
            <mxPoint x="495" y="1160" as="sourcePoint" />
            <mxPoint x="178.55999999999995" y="1012.008" as="targetPoint" />
          </mxGeometry>
        </mxCell>
        <mxCell id="yU6eiCRh9YokpET91SIk-120" value="" style="endArrow=classic;startArrow=classic;html=1;rounded=0;exitX=0.45;exitY=-0.077;exitDx=0;exitDy=0;exitPerimeter=0;entryX=0.449;entryY=1.062;entryDx=0;entryDy=0;entryPerimeter=0;labelBackgroundColor=none;strokeColor=#E07A5F;fontColor=default;" edge="1" parent="WIyWlLk6GJQsqaUBKTNV-1">
          <mxGeometry width="50" height="50" relative="1" as="geometry">
            <mxPoint x="181" y="1068" as="sourcePoint" />
            <mxPoint x="180" y="1006" as="targetPoint" />
          </mxGeometry>
        </mxCell>
        <mxCell id="yU6eiCRh9YokpET91SIk-121" value="" style="endArrow=classic;startArrow=classic;html=1;rounded=0;exitX=0;exitY=0.5;exitDx=0;exitDy=0;labelBackgroundColor=none;strokeColor=#E07A5F;fontColor=default;" edge="1" parent="WIyWlLk6GJQsqaUBKTNV-1" source="yU6eiCRh9YokpET91SIk-98">
          <mxGeometry width="50" height="50" relative="1" as="geometry">
            <mxPoint x="-140" y="810" as="sourcePoint" />
            <mxPoint x="-250" y="560" as="targetPoint" />
            <Array as="points">
              <mxPoint x="-390" y="960" />
              <mxPoint x="-390" y="810" />
              <mxPoint x="-390" y="560" />
            </Array>
          </mxGeometry>
        </mxCell>
        <mxCell id="yU6eiCRh9YokpET91SIk-122" value="" style="endArrow=classic;startArrow=classic;html=1;rounded=0;entryX=0.953;entryY=1.162;entryDx=0;entryDy=0;entryPerimeter=0;exitX=1.012;exitY=0.108;exitDx=0;exitDy=0;exitPerimeter=0;labelBackgroundColor=none;strokeColor=#E07A5F;fontColor=default;" edge="1" parent="WIyWlLk6GJQsqaUBKTNV-1" source="yU6eiCRh9YokpET91SIk-116" target="yU6eiCRh9YokpET91SIk-25">
          <mxGeometry width="50" height="50" relative="1" as="geometry">
            <mxPoint x="310" y="640" as="sourcePoint" />
            <mxPoint x="-90" y="760" as="targetPoint" />
            <Array as="points">
              <mxPoint x="400" y="1100" />
              <mxPoint x="400" y="610" />
              <mxPoint x="7" y="610" />
            </Array>
          </mxGeometry>
        </mxCell>
      </root>
    </mxGraphModel>
  </diagram>
</mxfile>
